<svg width="1200" height="1500" viewBox="0 0 1200 1500" fill="none" xmlns="http://www.w3.org/2000/svg">
  <defs>
    <linearGradient id="g2" x1="0" y1="0" x2="1200" y2="1500" gradientUnits="userSpaceOnUse">
      <stop stop-color="#080808"/>
      <stop offset="1" stop-color="#101010"/>
    </linearGradient>
    <linearGradient id="chrome" x1="200" y1="250" x2="980" y2="1250" gradientUnits="userSpaceOnUse">
      <stop stop-color="#FFFFFF" stop-opacity="0.92"/>
      <stop offset="0.5" stop-color="#FFFFFF" stop-opacity="0.25"/>
      <stop offset="1" stop-color="#FFFFFF" stop-opacity="0.85"/>
    </linearGradient>
  </defs>
  <rect width="1200" height="1500" rx="60" fill="url(#g2)"/>
  <rect x="70" y="70" width="1060" height="1360" rx="44" stroke="#FFFFFF" stroke-opacity="0.16" stroke-width="8"/>
  <circle cx="600" cy="420" r="186" stroke="url(#chrome)" stroke-width="18" stroke-opacity="0.9"/>
  <path d="M470 980C470 862.843 565.843 767 683 767H712C829.157 767 925 862.843 925 980V1220H470V980Z" fill="#FFFFFF" fill-opacity="0.16"/>
  <path d="M497 978C497 877.917 578.917 796 679 796H713C813.083 796 895 877.917 895 978V1188H497V978Z" fill="#FFFFFF" fill-opacity="0.5"/>
  <path d="M390 350L820 350" stroke="#FFFFFF" stroke-opacity="0.16" stroke-width="10" stroke-linecap="round" stroke-dasharray="1 18"/>
  <path d="M385 1218L840 1218" stroke="#FFFFFF" stroke-opacity="0.18" stroke-width="10" stroke-linecap="round"/>
  <path d="M520 470L600 620L680 470" stroke="#FFFFFF" stroke-opacity="0.72" stroke-width="12" stroke-linecap="round" stroke-linejoin="round"/>
  <path d="M558 660H644" stroke="#FFFFFF" stroke-opacity="0.72" stroke-width="12" stroke-linecap="round"/>
  <text x="86" y="1430" fill="#FFFFFF" fill-opacity="0.72" font-family="IBM Plex Mono, monospace" font-size="36">portrait_02 // halo</text>
</svg>
